{
	"asset":{
		"generator":"Khronos glTF Blender I/O v5.0.21",
		"version":"2.0"
	},
	"scene":0,
	"scenes":[
		{
			"name":"Scene",
			"nodes":[
				0
			]
		}
	],
	"nodes":[
		{
			"mesh":0,
			"name":"battery",
			"scale":[
				0.726043701171875,
				2.088322401046753,
				0.756074070930481
			],
			"translation":[
				0.558356523513794,
				0,
				0
			]
		}
	],
	"materials":[
		{
			"doubleSided":true,
			"name":"orange",
			"pbrMetallicRoughness":{
				"baseColorFactor":[
					1,
					0.26225095987319946,
					0,
					1
				],
				"metallicFactor":0,
				"roughnessFactor":0.5
			}
		},
		{
			"doubleSided":true,
			"name":"black",
			"pbrMetallicRoughness":{
				"baseColorFactor":[
					0.026241039857268333,
					0.026241246610879898,
					0.026241227984428406,
					1
				],
				"metallicFactor":0,
				"roughnessFactor":0.5
			}
		},
		{
			"doubleSided":true,
			"name":"silver",
			"pbrMetallicRoughness":{
				"baseColorFactor":[
					0.7156886458396912,
					0.7156942486763,
					0.7156938910484314,
					1
				],
				"metallicFactor":0,
				"roughnessFactor":0.5
			}
		}
	],
	"meshes":[
		{
			"name":"Cylinder",
			"primitives":[
				{
					"attributes":{
						"POSITION":0,
						"NORMAL":1,
						"TEXCOORD_0":2
					},
					"indices":3,
					"material":0
				},
				{
					"attributes":{
						"POSITION":4,
						"NORMAL":5,
						"TEXCOORD_0":6
					},
					"indices":7,
					"material":1
				},
				{
					"attributes":{
						"POSITION":8,
						"NORMAL":9,
						"TEXCOORD_0":10
					},
					"indices":11,
					"material":2
				}
			]
		}
	],
	"accessors":[
		{
			"bufferView":0,
			"componentType":5126,
			"count":168,
			"max":[
				1,
				1,
				1
			],
			"min":[
				-1,
				-1.0184277296066284,
				-1
			],
			"type":"VEC3"
		},
		{
			"bufferView":1,
			"componentType":5126,
			"count":168,
			"type":"VEC3"
		},
		{
			"bufferView":2,
			"componentType":5126,
			"count":168,
			"type":"VEC2"
		},
		{
			"bufferView":3,
			"componentType":5123,
			"count":480,
			"type":"SCALAR"
		},
		{
			"bufferView":4,
			"componentType":5126,
			"count":90,
			"max":[
				1,
				0.24552473425865173,
				1
			],
			"min":[
				-1,
				-1,
				-1
			],
			"type":"VEC3"
		},
		{
			"bufferView":5,
			"componentType":5126,
			"count":90,
			"type":"VEC3"
		},
		{
			"bufferView":6,
			"componentType":5126,
			"count":90,
			"type":"VEC2"
		},
		{
			"bufferView":7,
			"componentType":5123,
			"count":192,
			"type":"SCALAR"
		},
		{
			"bufferView":8,
			"componentType":5126,
			"count":97,
			"max":[
				0.7202977538108826,
				1.1326797008514404,
				0.7202977538108826
			],
			"min":[
				-0.7202977538108826,
				-1.0184277296066284,
				-0.7202977538108826
			],
			"type":"VEC3"
		},
		{
			"bufferView":9,
			"componentType":5126,
			"count":97,
			"type":"VEC3"
		},
		{
			"bufferView":10,
			"componentType":5126,
			"count":97,
			"type":"VEC2"
		},
		{
			"bufferView":11,
			"componentType":5123,
			"count":276,
			"type":"SCALAR"
		}
	],
	"bufferViews":[
		{
			"buffer":0,
			"byteLength":2016,
			"byteOffset":0,
			"target":34962
		},
		{
			"buffer":0,
			"byteLength":2016,
			"byteOffset":2016,
			"target":34962
		},
		{
			"buffer":0,
			"byteLength":1344,
			"byteOffset":4032,
			"target":34962
		},
		{
			"buffer":0,
			"byteLength":960,
			"byteOffset":5376,
			"target":34963
		},
		{
			"buffer":0,
			"byteLength":1080,
			"byteOffset":6336,
			"target":34962
		},
		{
			"buffer":0,
			"byteLength":1080,
			"byteOffset":7416,
			"target":34962
		},
		{
			"buffer":0,
			"byteLength":720,
			"byteOffset":8496,
			"target":34962
		},
		{
			"buffer":0,
			"byteLength":384,
			"byteOffset":9216,
			"target":34963
		},
		{
			"buffer":0,
			"byteLength":1164,
			"byteOffset":9600,
			"target":34962
		},
		{
			"buffer":0,
			"byteLength":1164,
			"byteOffset":10764,
			"target":34962
		},
		{
			"buffer":0,
			"byteLength":776,
			"byteOffset":11928,
			"target":34962
		},
		{
			"buffer":0,
			"byteLength":552,
			"byteOffset":12704,
			"target":34963
		}
	],
	"buffers":[
		{
			"byteLength":13256,
			"uri":"model.bin"
		}
	]
}
