{
	"asset":{
		"generator":"Khronos glTF Blender I/O v5.0.21",
		"version":"2.0"
	},
	"scene":0,
	"scenes":[
		{
			"name":"Scene",
			"nodes":[
				0,
				1,
				2,
				3,
				4,
				5,
				6
			]
		}
	],
	"nodes":[
		{
			"mesh":0,
			"name":"body",
			"scale":[
				1.8997904062271118,
				2.197453737258911,
				2.043412208557129
			]
		},
		{
			"mesh":1,
			"name":"drawer1",
			"scale":[
				1.6443440914154053,
				0.5769134759902954,
				1.9126240015029907
			],
			"translation":[
				-0.015044113621115685,
				1.3455097675323486,
				-0.0632559061050415
			]
		},
		{
			"mesh":2,
			"name":"drawer2",
			"scale":[
				1.6443440914154053,
				0.6377964019775391,
				1.9126240015029907
			],
			"translation":[
				-0.015044113621115685,
				-0.19016709923744202,
				-0.0632559061050415
			]
		},
		{
			"mesh":3,
			"name":"third drawer ",
			"scale":[
				0.19796092808246613,
				0.09147655963897705,
				0.5037422776222229
			],
			"translation":[
				1.7127946615219116,
				-1.5737378597259521,
				0
			]
		},
		{
			"mesh":4,
			"name":"third handle",
			"rotation":[
				0,
				-0.7092817425727844,
				0,
				0.7049251794815063
			],
			"scale":[
				0.19796092808246613,
				0.09147655963897705,
				0.5037423372268677
			],
			"translation":[
				-0.0075078606605529785,
				-1.5737378597259521,
				1.9280612468719482
			]
		},
		{
			"mesh":5,
			"name":"first handle.001",
			"rotation":[
				0,
				-0.7092817425727844,
				0,
				0.7049251794815063
			],
			"scale":[
				0.19796092808246613,
				0.09147655963897705,
				0.5037423372268677
			],
			"translation":[
				-0.0075078606605529785,
				1.279225468635559,
				1.8897579908370972
			]
		},
		{
			"mesh":6,
			"name":"second handle.001",
			"rotation":[
				0,
				-0.7092817425727844,
				0,
				0.7049251794815063
			],
			"scale":[
				0.19796092808246613,
				0.09147655963897705,
				0.5037423372268677
			],
			"translation":[
				-0.0075078606605529785,
				-0.15390481054782867,
				1.9280612468719482
			]
		}
	],
	"materials":[
		{
			"doubleSided":true,
			"name":"1st drawer",
			"pbrMetallicRoughness":{
				"baseColorFactor":[
					0.0343395434319973,
					0.04666513204574585,
					0.06124606356024742,
					1
				],
				"metallicFactor":0,
				"roughnessFactor":0.5
			}
		},
		{
			"doubleSided":true,
			"name":"first drawer",
			"pbrMetallicRoughness":{
				"baseColorFactor":[
					0.18781916797161102,
					0.34191471338272095,
					0.43415385484695435,
					1
				],
				"metallicFactor":0,
				"roughnessFactor":0.5
			}
		},
		{
			"doubleSided":true,
			"name":"second drawer",
			"pbrMetallicRoughness":{
				"baseColorFactor":[
					0.18781916797161102,
					0.34191471338272095,
					0.43415385484695435,
					1
				],
				"metallicFactor":0,
				"roughnessFactor":0.5
			}
		},
		{
			"doubleSided":true,
			"name":"third drawer",
			"pbrMetallicRoughness":{
				"baseColorFactor":[
					0.18781916797161102,
					0.34191471338272095,
					0.43415385484695435,
					1
				],
				"metallicFactor":0,
				"roughnessFactor":0.5
			}
		},
		{
			"doubleSided":true,
			"name":"handle 3",
			"pbrMetallicRoughness":{
				"baseColorFactor":[
					0.5583371520042419,
					0.35153305530548096,
					0.09989883005619049,
					1
				],
				"metallicFactor":0,
				"roughnessFactor":0.5
			}
		},
		{
			"doubleSided":true,
			"name":"handle 1",
			"pbrMetallicRoughness":{
				"baseColorFactor":[
					0.5583371520042419,
					0.35153305530548096,
					0.09989883005619049,
					1
				],
				"metallicFactor":0,
				"roughnessFactor":0.5
			}
		},
		{
			"doubleSided":true,
			"name":"handle 2",
			"pbrMetallicRoughness":{
				"baseColorFactor":[
					0.5583371520042419,
					0.35153305530548096,
					0.09989883005619049,
					1
				],
				"metallicFactor":0,
				"roughnessFactor":0.5
			}
		}
	],
	"meshes":[
		{
			"name":"Cube",
			"primitives":[
				{
					"attributes":{
						"POSITION":0,
						"NORMAL":1,
						"TEXCOORD_0":2
					},
					"indices":3,
					"material":0
				}
			]
		},
		{
			"name":"Cube.001",
			"primitives":[
				{
					"attributes":{
						"POSITION":4,
						"NORMAL":5,
						"TEXCOORD_0":6
					},
					"indices":7,
					"material":1
				}
			]
		},
		{
			"name":"Cube.002",
			"primitives":[
				{
					"attributes":{
						"POSITION":8,
						"NORMAL":9,
						"TEXCOORD_0":10
					},
					"indices":11,
					"material":2
				}
			]
		},
		{
			"name":"Cube.004",
			"primitives":[
				{
					"attributes":{
						"POSITION":12,
						"NORMAL":13,
						"TEXCOORD_0":14
					},
					"indices":15,
					"material":3
				}
			]
		},
		{
			"name":"Cube.007",
			"primitives":[
				{
					"attributes":{
						"POSITION":16,
						"NORMAL":17,
						"TEXCOORD_0":18
					},
					"indices":19,
					"material":4
				}
			]
		},
		{
			"name":"Cube.008",
			"primitives":[
				{
					"attributes":{
						"POSITION":20,
						"NORMAL":21,
						"TEXCOORD_0":22
					},
					"indices":19,
					"material":5
				}
			]
		},
		{
			"name":"Cube.009",
			"primitives":[
				{
					"attributes":{
						"POSITION":23,
						"NORMAL":24,
						"TEXCOORD_0":25
					},
					"indices":19,
					"material":6
				}
			]
		}
	],
	"accessors":[
		{
			"bufferView":0,
			"componentType":5126,
			"count":107,
			"max":[
				1,
				1,
				1
			],
			"min":[
				-1,
				-1.2117834091186523,
				-1.0009372234344482
			],
			"type":"VEC3"
		},
		{
			"bufferView":1,
			"componentType":5126,
			"count":107,
			"type":"VEC3"
		},
		{
			"bufferView":2,
			"componentType":5126,
			"count":107,
			"type":"VEC2"
		},
		{
			"bufferView":3,
			"componentType":5123,
			"count":516,
			"type":"SCALAR"
		},
		{
			"bufferView":4,
			"componentType":5126,
			"count":96,
			"max":[
				1,
				1,
				1
			],
			"min":[
				-1,
				-1,
				-1
			],
			"type":"VEC3"
		},
		{
			"bufferView":5,
			"componentType":5126,
			"count":96,
			"type":"VEC3"
		},
		{
			"bufferView":6,
			"componentType":5126,
			"count":96,
			"type":"VEC2"
		},
		{
			"bufferView":7,
			"componentType":5123,
			"count":270,
			"type":"SCALAR"
		},
		{
			"bufferView":8,
			"componentType":5126,
			"count":100,
			"max":[
				1,
				1,
				1
			],
			"min":[
				-1,
				-1,
				-1
			],
			"type":"VEC3"
		},
		{
			"bufferView":9,
			"componentType":5126,
			"count":100,
			"type":"VEC3"
		},
		{
			"bufferView":10,
			"componentType":5126,
			"count":100,
			"type":"VEC2"
		},
		{
			"bufferView":11,
			"componentType":5123,
			"count":276,
			"type":"SCALAR"
		},
		{
			"bufferView":12,
			"componentType":5126,
			"count":102,
			"max":[
				-0.42177486419677734,
				4.675578594207764,
				3.6712584495544434
			],
			"min":[
				-17.034587860107422,
				-6.450332164764404,
				-3.9224023818969727
			],
			"type":"VEC3"
		},
		{
			"bufferView":13,
			"componentType":5126,
			"count":102,
			"type":"VEC3"
		},
		{
			"bufferView":14,
			"componentType":5126,
			"count":102,
			"type":"VEC2"
		},
		{
			"bufferView":15,
			"componentType":5123,
			"count":282,
			"type":"SCALAR"
		},
		{
			"bufferView":16,
			"componentType":5126,
			"count":38,
			"max":[
				1,
				1,
				1
			],
			"min":[
				-1,
				-1,
				-1
			],
			"type":"VEC3"
		},
		{
			"bufferView":17,
			"componentType":5126,
			"count":38,
			"type":"VEC3"
		},
		{
			"bufferView":18,
			"componentType":5126,
			"count":38,
			"type":"VEC2"
		},
		{
			"bufferView":19,
			"componentType":5123,
			"count":132,
			"type":"SCALAR"
		},
		{
			"bufferView":20,
			"componentType":5126,
			"count":38,
			"max":[
				1,
				1,
				1
			],
			"min":[
				-1,
				-1,
				-1
			],
			"type":"VEC3"
		},
		{
			"bufferView":21,
			"componentType":5126,
			"count":38,
			"type":"VEC3"
		},
		{
			"bufferView":22,
			"componentType":5126,
			"count":38,
			"type":"VEC2"
		},
		{
			"bufferView":23,
			"componentType":5126,
			"count":38,
			"max":[
				1,
				1,
				1
			],
			"min":[
				-1,
				-1,
				-1
			],
			"type":"VEC3"
		},
		{
			"bufferView":24,
			"componentType":5126,
			"count":38,
			"type":"VEC3"
		},
		{
			"bufferView":25,
			"componentType":5126,
			"count":38,
			"type":"VEC2"
		}
	],
	"bufferViews":[
		{
			"buffer":0,
			"byteLength":1284,
			"byteOffset":0,
			"target":34962
		},
		{
			"buffer":0,
			"byteLength":1284,
			"byteOffset":1284,
			"target":34962
		},
		{
			"buffer":0,
			"byteLength":856,
			"byteOffset":2568,
			"target":34962
		},
		{
			"buffer":0,
			"byteLength":1032,
			"byteOffset":3424,
			"target":34963
		},
		{
			"buffer":0,
			"byteLength":1152,
			"byteOffset":4456,
			"target":34962
		},
		{
			"buffer":0,
			"byteLength":1152,
			"byteOffset":5608,
			"target":34962
		},
		{
			"buffer":0,
			"byteLength":768,
			"byteOffset":6760,
			"target":34962
		},
		{
			"buffer":0,
			"byteLength":540,
			"byteOffset":7528,
			"target":34963
		},
		{
			"buffer":0,
			"byteLength":1200,
			"byteOffset":8068,
			"target":34962
		},
		{
			"buffer":0,
			"byteLength":1200,
			"byteOffset":9268,
			"target":34962
		},
		{
			"buffer":0,
			"byteLength":800,
			"byteOffset":10468,
			"target":34962
		},
		{
			"buffer":0,
			"byteLength":552,
			"byteOffset":11268,
			"target":34963
		},
		{
			"buffer":0,
			"byteLength":1224,
			"byteOffset":11820,
			"target":34962
		},
		{
			"buffer":0,
			"byteLength":1224,
			"byteOffset":13044,
			"target":34962
		},
		{
			"buffer":0,
			"byteLength":816,
			"byteOffset":14268,
			"target":34962
		},
		{
			"buffer":0,
			"byteLength":564,
			"byteOffset":15084,
			"target":34963
		},
		{
			"buffer":0,
			"byteLength":456,
			"byteOffset":15648,
			"target":34962
		},
		{
			"buffer":0,
			"byteLength":456,
			"byteOffset":16104,
			"target":34962
		},
		{
			"buffer":0,
			"byteLength":304,
			"byteOffset":16560,
			"target":34962
		},
		{
			"buffer":0,
			"byteLength":264,
			"byteOffset":16864,
			"target":34963
		},
		{
			"buffer":0,
			"byteLength":456,
			"byteOffset":17128,
			"target":34962
		},
		{
			"buffer":0,
			"byteLength":456,
			"byteOffset":17584,
			"target":34962
		},
		{
			"buffer":0,
			"byteLength":304,
			"byteOffset":18040,
			"target":34962
		},
		{
			"buffer":0,
			"byteLength":456,
			"byteOffset":18344,
			"target":34962
		},
		{
			"buffer":0,
			"byteLength":456,
			"byteOffset":18800,
			"target":34962
		},
		{
			"buffer":0,
			"byteLength":304,
			"byteOffset":19256,
			"target":34962
		}
	],
	"buffers":[
		{
			"byteLength":19560,
			"uri":"model.bin"
		}
	]
}
