{
  "accessors": [
    {
      "bufferView": 2,
      "componentType": 5126,
      "count": 122,
      "max": [
        3.409473419189453,
        0.5,
        0.5
      ],
      "min": [
        -0.5,
        -10.348742485046387,
        -15.049062728881836
      ],
      "type": "VEC3"
    },
    {
      "bufferView": 2,
      "byteOffset": 1464,
      "componentType": 5126,
      "count": 122,
      "max": [
        1.0,
        1.0,
        1.0
      ],
      "min": [
        -1.0,
        -1.0,
        -1.0
      ],
      "type": "VEC3"
    },
    {
      "bufferView": 3,
      "componentType": 5126,
      "count": 122,
      "max": [
        1.0,
        1.0,
        0.0,
        1.0
      ],
      "min": [
        0.0,
        0.0,
        0.0,
        1.0
      ],
      "type": "VEC4"
    },
    {
      "bufferView": 1,
      "componentType": 5126,
      "count": 122,
      "max": [
        1.0,
        0.9369787573814392
      ],
      "min": [
        0.0,
        2.384185791015625e-07
      ],
      "type": "VEC2"
    },
    {
      "bufferView": 0,
      "componentType": 5125,
      "count": 252,
      "type": "SCALAR"
    },
    {
      "bufferView": 2,
      "byteOffset": 2928,
      "componentType": 5126,
      "count": 4968,
      "max": [
        19.315216064453125,
        71.08055877685547,
        116.03760528564453
      ],
      "min": [
        -168.42288208007813,
        -1.4413241147994995,
        -109.3260269165039
      ],
      "type": "VEC3"
    },
    {
      "bufferView": 2,
      "byteOffset": 62544,
      "componentType": 5126,
      "count": 4968,
      "max": [
        1.0,
        1.0,
        1.0
      ],
      "min": [
        -1.0,
        -0.9999997019767761,
        -1.0
      ],
      "type": "VEC3"
    },
    {
      "bufferView": 3,
      "byteOffset": 1952,
      "componentType": 5126,
      "count": 4968,
      "max": [
        1.0,
        1.0,
        0.9490413069725037,
        1.0
      ],
      "min": [
        -0.9999974966049194,
        -1.0,
        -0.6913160085678101,
        1.0
      ],
      "type": "VEC4"
    },
    {
      "bufferView": 1,
      "byteOffset": 976,
      "componentType": 5126,
      "count": 4968,
      "max": [
        0.9981940984725952,
        0.988808274269104
      ],
      "min": [
        0.0881052017211914,
        0.0
      ],
      "type": "VEC2"
    },
    {
      "bufferView": 0,
      "byteOffset": 1008,
      "componentType": 5125,
      "count": 21924,
      "type": "SCALAR"
    }
  ],
  "asset": {
    "extras": {
      "author": "thicctac12021 (https://sketchfab.com/thicctac12021)",
      "license": "CC-BY-4.0 (http://creativecommons.org/licenses/by/4.0/)",
      "source": "https://sketchfab.com/3d-models/stairs-d16e60eb479d4fb28e58cc0ba04ce98f",
      "title": "Stairs"
    },
    "generator": "Sketchfab-14.62.0",
    "version": "2.0"
  },
  "bufferViews": [
    {
      "buffer": 0,
      "byteLength": 88704,
      "name": "floatBufferViews",
      "target": 34963
    },
    {
      "buffer": 0,
      "byteLength": 40720,
      "byteOffset": 88704,
      "byteStride": 8,
      "name": "floatBufferViews",
      "target": 34962
    },
    {
      "buffer": 0,
      "byteLength": 122160,
      "byteOffset": 129424,
      "byteStride": 12,
      "name": "floatBufferViews",
      "target": 34962
    },
    {
      "buffer": 0,
      "byteLength": 81440,
      "byteOffset": 251584,
      "byteStride": 16,
      "name": "floatBufferViews",
      "target": 34962
    }
  ],
  "buffers": [
    {
      "byteLength": 333024,
      "uri": "scene.bin"
    }
  ],
  "extensionsUsed": [
    "KHR_materials_specular"
  ],
  "images": [
    {
      "uri": "textures/Base_baseColor.png"
    },
    {
      "uri": "textures/Base_metallicRoughness.png"
    },
    {
      "uri": "textures/Base_normal.png"
    },
    {
      "uri": "textures/Stairs_baseColor.png"
    },
    {
      "uri": "textures/Stairs_metallicRoughness.png"
    },
    {
      "uri": "textures/Stairs_normal.png"
    },
    {
      "uri": "textures/Stairs_specularf0.png"
    }
  ],
  "materials": [
    {
      "doubleSided": true,
      "name": "Base",
      "normalTexture": {
        "index": 2
      },
      "pbrMetallicRoughness": {
        "baseColorTexture": {
          "index": 0
        },
        "metallicRoughnessTexture": {
          "index": 1
        }
      }
    },
    {
      "doubleSided": true,
      "extensions": {
        "KHR_materials_specular": {
          "specularColorFactor": [
            1.0,
            1.0,
            1.0
          ],
          "specularFactor": 1.0,
          "specularTexture": {
            "index": 6
          }
        }
      },
      "name": "Stairs",
      "normalTexture": {
        "index": 5
      },
      "pbrMetallicRoughness": {
        "baseColorTexture": {
          "index": 3
        },
        "metallicFactor": 0.0,
        "metallicRoughnessTexture": {
          "index": 4
        }
      }
    }
  ],
  "meshes": [
    {
      "name": "pCube20_Base_0",
      "primitives": [
        {
          "attributes": {
            "NORMAL": 1,
            "POSITION": 0,
            "TANGENT": 2,
            "TEXCOORD_0": 3
          },
          "indices": 4,
          "material": 0,
          "mode": 4
        }
      ]
    },
    {
      "name": "polySurface1_Stairs_0",
      "primitives": [
        {
          "attributes": {
            "NORMAL": 6,
            "POSITION": 5,
            "TANGENT": 7,
            "TEXCOORD_0": 8
          },
          "indices": 9,
          "material": 1,
          "mode": 4
        }
      ]
    }
  ],
  "nodes": [
    {
      "children": [
        1
      ],
      "matrix": [
        1.0,
        0.0,
        0.0,
        0.0,
        0.0,
        2.220446049250313e-16,
        -1.0,
        0.0,
        0.0,
        1.0,
        2.220446049250313e-16,
        0.0,
        0.0,
        0.0,
        0.0,
        1.0
      ],
      "name": "Sketchfab_model"
    },
    {
      "children": [
        2
      ],
      "matrix": [
        0.009999999776482582,
        0.0,
        0.0,
        0.0,
        0.0,
        0.0,
        0.009999999776482582,
        0.0,
        0.0,
        -0.009999999776482582,
        0.0,
        0.0,
        0.0,
        0.0,
        0.0,
        1.0
      ],
      "name": "de47f75bc8804f89b5680fdb6a8dacbd.fbx"
    },
    {
      "children": [
        3,
        5
      ],
      "name": "RootNode"
    },
    {
      "children": [
        4
      ],
      "matrix": [
        -47.771846771240234,
        -0.0,
        -0.0,
        -0.0,
        -0.0,
        -6.419790744781494,
        -0.0,
        -0.0,
        -0.0,
        -0.0,
        -14.425985336303711,
        -0.0,
        -4.800003528594971,
        -0.852196216583252,
        -101.4875717163086,
        1.0
      ],
      "name": "pCube20"
    },
    {
      "mesh": 0,
      "name": "pCube20_Base_0"
    },
    {
      "children": [
        6
      ],
      "name": "polySurface1"
    },
    {
      "mesh": 1,
      "name": "polySurface1_Stairs_0"
    }
  ],
  "samplers": [
    {
      "magFilter": 9729,
      "minFilter": 9987,
      "wrapS": 10497,
      "wrapT": 10497
    }
  ],
  "scene": 0,
  "scenes": [
    {
      "name": "Sketchfab_Scene",
      "nodes": [
        0
      ]
    }
  ],
  "textures": [
    {
      "sampler": 0,
      "source": 0
    },
    {
      "sampler": 0,
      "source": 1
    },
    {
      "sampler": 0,
      "source": 2
    },
    {
      "sampler": 0,
      "source": 3
    },
    {
      "sampler": 0,
      "source": 4
    },
    {
      "sampler": 0,
      "source": 5
    },
    {
      "sampler": 0,
      "source": 6
    }
  ]
}
