{
	"asset":{
		"generator":"Khronos glTF Blender I/O v5.0.21",
		"version":"2.0"
	},
	"scene":0,
	"scenes":[
		{
			"name":"Scene",
			"nodes":[
				0,
				1,
				2,
				3
			]
		}
	],
	"nodes":[
		{
			"mesh":0,
			"name":"Cylinder.002",
			"rotation":[
				0.6830126643180847,
				-0.1830127090215683,
				-0.1830127090215683,
				0.6830127239227295
			],
			"scale":[
				0.4095042943954468,
				0.4095042943954468,
				0.4095042943954468
			],
			"translation":[
				-0.03164726495742798,
				0,
				2.374913215637207
			]
		},
		{
			"mesh":1,
			"name":"Cube",
			"scale":[
				0.7646806836128235,
				0.06618741899728775,
				0.7646806836128235
			],
			"translation":[
				-0.8427662253379822,
				0,
				8.739230155944824
			]
		},
		{
			"mesh":2,
			"name":"Cylinder.003",
			"scale":[
				0.816710352897644,
				1,
				0.816710352897644
			],
			"translation":[
				0.5203812122344971,
				0,
				0.39419445395469666
			]
		},
		{
			"mesh":3,
			"name":"Cylinder",
			"scale":[
				0.8626209497451782,
				1.088029146194458,
				0.8626209497451782
			],
			"translation":[
				-0.5245069861412048,
				0,
				0.32469481229782104
			]
		}
	],
	"animations":[
		{
			"channels":[
				{
					"sampler":0,
					"target":{
						"node":2,
						"path":"translation"
					}
				},
				{
					"sampler":1,
					"target":{
						"node":2,
						"path":"rotation"
					}
				},
				{
					"sampler":2,
					"target":{
						"node":2,
						"path":"scale"
					}
				}
			],
			"name":"Cylinder.003Action",
			"samplers":[
				{
					"input":16,
					"interpolation":"LINEAR",
					"output":17
				},
				{
					"input":16,
					"interpolation":"LINEAR",
					"output":18
				},
				{
					"input":16,
					"interpolation":"LINEAR",
					"output":19
				}
			]
		}
	],
	"materials":[
		{
			"doubleSided":true,
			"name":"Material.002",
			"pbrMetallicRoughness":{
				"baseColorFactor":[
					1,
					0.6795433163642883,
					0,
					1
				],
				"metallicFactor":0,
				"roughnessFactor":0.5
			}
		},
		{
			"doubleSided":true,
			"name":"Material.003",
			"pbrMetallicRoughness":{
				"baseColorFactor":[
					1,
					0.6795433163642883,
					0,
					1
				],
				"metallicFactor":0,
				"roughnessFactor":0.5
			}
		},
		{
			"doubleSided":true,
			"name":"Material.001",
			"pbrMetallicRoughness":{
				"baseColorFactor":[
					1,
					0.6795433163642883,
					0,
					1
				],
				"metallicFactor":0,
				"roughnessFactor":0.5
			}
		},
		{
			"doubleSided":true,
			"name":"key",
			"pbrMetallicRoughness":{
				"baseColorFactor":[
					1,
					0.6795433163642883,
					0,
					1
				],
				"metallicFactor":0,
				"roughnessFactor":0.5
			}
		}
	],
	"meshes":[
		{
			"name":"Cylinder.005",
			"primitives":[
				{
					"attributes":{
						"POSITION":0,
						"NORMAL":1,
						"TEXCOORD_0":2
					},
					"indices":3,
					"material":0
				}
			]
		},
		{
			"name":"Cube.001",
			"primitives":[
				{
					"attributes":{
						"POSITION":4,
						"NORMAL":5,
						"TEXCOORD_0":6
					},
					"indices":7,
					"material":1
				}
			]
		},
		{
			"name":"Cylinder.008",
			"primitives":[
				{
					"attributes":{
						"POSITION":8,
						"NORMAL":9,
						"TEXCOORD_0":10
					},
					"indices":11,
					"material":2
				}
			]
		},
		{
			"name":"Cylinder.009",
			"primitives":[
				{
					"attributes":{
						"POSITION":12,
						"NORMAL":13,
						"TEXCOORD_0":14
					},
					"indices":15,
					"material":3
				}
			]
		}
	],
	"accessors":[
		{
			"bufferView":0,
			"componentType":5126,
			"count":164,
			"max":[
				1.1504359245300293,
				17.865219116210938,
				1.3284084796905518
			],
			"min":[
				-1.1504359245300293,
				-1,
				-1.3284094333648682
			],
			"type":"VEC3"
		},
		{
			"bufferView":1,
			"componentType":5126,
			"count":164,
			"type":"VEC3"
		},
		{
			"bufferView":2,
			"componentType":5126,
			"count":164,
			"type":"VEC2"
		},
		{
			"bufferView":3,
			"componentType":5123,
			"count":276,
			"type":"SCALAR"
		},
		{
			"bufferView":4,
			"componentType":5126,
			"count":124,
			"max":[
				1,
				1,
				1
			],
			"min":[
				-1,
				-1,
				-1
			],
			"type":"VEC3"
		},
		{
			"bufferView":5,
			"componentType":5126,
			"count":124,
			"type":"VEC3"
		},
		{
			"bufferView":6,
			"componentType":5126,
			"count":124,
			"type":"VEC2"
		},
		{
			"bufferView":7,
			"componentType":5123,
			"count":276,
			"type":"SCALAR"
		},
		{
			"bufferView":8,
			"componentType":5126,
			"count":192,
			"max":[
				1.806710958480835,
				0.27547863125801086,
				2.5173821449279785
			],
			"min":[
				-3.0810458660125732,
				-0.27547863125801086,
				-1.6572288274765015
			],
			"type":"VEC3"
		},
		{
			"bufferView":9,
			"componentType":5126,
			"count":192,
			"type":"VEC3"
		},
		{
			"bufferView":10,
			"componentType":5126,
			"count":192,
			"type":"VEC2"
		},
		{
			"bufferView":11,
			"componentType":5123,
			"count":372,
			"type":"SCALAR"
		},
		{
			"bufferView":12,
			"componentType":5126,
			"count":384,
			"max":[
				2.5178334712982178,
				1,
				1
			],
			"min":[
				-1,
				-1,
				-1
			],
			"type":"VEC3"
		},
		{
			"bufferView":13,
			"componentType":5126,
			"count":384,
			"type":"VEC3"
		},
		{
			"bufferView":14,
			"componentType":5126,
			"count":384,
			"type":"VEC2"
		},
		{
			"bufferView":15,
			"componentType":5123,
			"count":744,
			"type":"SCALAR"
		},
		{
			"bufferView":16,
			"componentType":5126,
			"count":1,
			"max":[
				0.041666666666666664
			],
			"min":[
				0.041666666666666664
			],
			"type":"SCALAR"
		},
		{
			"bufferView":17,
			"componentType":5126,
			"count":1,
			"type":"VEC3"
		},
		{
			"bufferView":18,
			"componentType":5126,
			"count":1,
			"type":"VEC4"
		},
		{
			"bufferView":19,
			"componentType":5126,
			"count":1,
			"type":"VEC3"
		}
	],
	"bufferViews":[
		{
			"buffer":0,
			"byteLength":1968,
			"byteOffset":0,
			"target":34962
		},
		{
			"buffer":0,
			"byteLength":1968,
			"byteOffset":1968,
			"target":34962
		},
		{
			"buffer":0,
			"byteLength":1312,
			"byteOffset":3936,
			"target":34962
		},
		{
			"buffer":0,
			"byteLength":552,
			"byteOffset":5248,
			"target":34963
		},
		{
			"buffer":0,
			"byteLength":1488,
			"byteOffset":5800,
			"target":34962
		},
		{
			"buffer":0,
			"byteLength":1488,
			"byteOffset":7288,
			"target":34962
		},
		{
			"buffer":0,
			"byteLength":992,
			"byteOffset":8776,
			"target":34962
		},
		{
			"buffer":0,
			"byteLength":552,
			"byteOffset":9768,
			"target":34963
		},
		{
			"buffer":0,
			"byteLength":2304,
			"byteOffset":10320,
			"target":34962
		},
		{
			"buffer":0,
			"byteLength":2304,
			"byteOffset":12624,
			"target":34962
		},
		{
			"buffer":0,
			"byteLength":1536,
			"byteOffset":14928,
			"target":34962
		},
		{
			"buffer":0,
			"byteLength":744,
			"byteOffset":16464,
			"target":34963
		},
		{
			"buffer":0,
			"byteLength":4608,
			"byteOffset":17208,
			"target":34962
		},
		{
			"buffer":0,
			"byteLength":4608,
			"byteOffset":21816,
			"target":34962
		},
		{
			"buffer":0,
			"byteLength":3072,
			"byteOffset":26424,
			"target":34962
		},
		{
			"buffer":0,
			"byteLength":1488,
			"byteOffset":29496,
			"target":34963
		},
		{
			"buffer":0,
			"byteLength":4,
			"byteOffset":30984
		},
		{
			"buffer":0,
			"byteLength":12,
			"byteOffset":30988
		},
		{
			"buffer":0,
			"byteLength":16,
			"byteOffset":31000
		},
		{
			"buffer":0,
			"byteLength":12,
			"byteOffset":31016
		}
	],
	"buffers":[
		{
			"byteLength":31028,
			"uri":"model.bin"
		}
	]
}
