{
  "accessors": [
    {
      "bufferView": 2,
      "componentType": 5126,
      "count": 1114,
      "max": [
        0.6968129873275757,
        0.33690598607063293,
        1.079308032989502
      ],
      "min": [
        -0.059418000280857086,
        -0.33690598607063293,
        -0.0010160000529140234
      ],
      "type": "VEC3"
    },
    {
      "bufferView": 2,
      "byteOffset": 13368,
      "componentType": 5126,
      "count": 1114,
      "max": [
        0.9999993443489075,
        1.0,
        0.9998944997787476
      ],
      "min": [
        -0.9999996423721313,
        -1.0,
        -0.9998944997787476
      ],
      "type": "VEC3"
    },
    {
      "bufferView": 3,
      "componentType": 5126,
      "count": 1114,
      "max": [
        0.9991871118545532,
        0.9999973773956299,
        0.9995906949043274,
        1.0
      ],
      "min": [
        -0.999363124370575,
        -0.9999997615814209,
        -0.9999953508377075,
        1.0
      ],
      "type": "VEC4"
    },
    {
      "bufferView": 1,
      "componentType": 5126,
      "count": 1114,
      "max": [
        0.642458975315094,
        0.9997749924659729
      ],
      "min": [
        0.4259290099143982,
        0.00022499999613501132
      ],
      "type": "VEC2"
    },
    {
      "bufferView": 0,
      "componentType": 5125,
      "count": 5796,
      "type": "SCALAR"
    },
    {
      "bufferView": 2,
      "byteOffset": 26736,
      "componentType": 5126,
      "count": 840,
      "max": [
        0.36094701290130615,
        -0.15053799748420715,
        0.6174650192260742
      ],
      "min": [
        -0.36094701290130615,
        -0.6616929769515991,
        -8.199999865610152e-05
      ],
      "type": "VEC3"
    },
    {
      "bufferView": 2,
      "byteOffset": 36816,
      "componentType": 5126,
      "count": 840,
      "max": [
        1.0,
        0.9999998807907104,
        1.0
      ],
      "min": [
        -1.0,
        -0.9999998807907104,
        -1.0
      ],
      "type": "VEC3"
    },
    {
      "bufferView": 3,
      "byteOffset": 17824,
      "componentType": 5126,
      "count": 840,
      "max": [
        0.9988866448402405,
        1.0,
        0.9999998807907104,
        1.0
      ],
      "min": [
        -0.940396249294281,
        -1.0,
        -0.9999998807907104,
        -1.0
      ],
      "type": "VEC4"
    },
    {
      "bufferView": 1,
      "byteOffset": 8912,
      "componentType": 5126,
      "count": 840,
      "max": [
        0.7361389994621277,
        0.9993159770965576
      ],
      "min": [
        0.3464139997959137,
        0.00022499999613501132
      ],
      "type": "VEC2"
    },
    {
      "bufferView": 0,
      "byteOffset": 23184,
      "componentType": 5125,
      "count": 4140,
      "type": "SCALAR"
    },
    {
      "bufferView": 2,
      "byteOffset": 46896,
      "componentType": 5126,
      "count": 214,
      "max": [
        0.36425700783729553,
        0.10605599731206894,
        1.0265100002288818
      ],
      "min": [
        0.11953900009393692,
        -0.6768590211868286,
        0.9676539897918701
      ],
      "type": "VEC3"
    },
    {
      "bufferView": 2,
      "byteOffset": 49464,
      "componentType": 5126,
      "count": 214,
      "max": [
        0.9999857544898987,
        0.9999297857284546,
        0.9997084736824036
      ],
      "min": [
        -0.9999857544898987,
        -0.9997966289520264,
        -0.9999051094055176
      ],
      "type": "VEC3"
    },
    {
      "bufferView": 3,
      "byteOffset": 31264,
      "componentType": 5126,
      "count": 214,
      "max": [
        0.9999860525131226,
        0.9999130964279175,
        0.9999890923500061,
        1.0
      ],
      "min": [
        -0.9999951720237732,
        -0.9985200762748718,
        -0.9999827146530151,
        1.0
      ],
      "type": "VEC4"
    },
    {
      "bufferView": 1,
      "byteOffset": 15632,
      "componentType": 5126,
      "count": 214,
      "max": [
        0.6746140122413635,
        0.9992480278015137
      ],
      "min": [
        0.00022499999613501132,
        0.00022499999613501132
      ],
      "type": "VEC2"
    },
    {
      "bufferView": 0,
      "byteOffset": 39744,
      "componentType": 5125,
      "count": 996,
      "type": "SCALAR"
    },
    {
      "bufferView": 2,
      "byteOffset": 52032,
      "componentType": 5126,
      "count": 304,
      "max": [
        0.34281599521636963,
        0.08908499777317047,
        1.0245989561080933
      ],
      "min": [
        -0.21033400297164917,
        -0.20357400178909302,
        0.5463259816169739
      ],
      "type": "VEC3"
    },
    {
      "bufferView": 2,
      "byteOffset": 55680,
      "componentType": 5126,
      "count": 304,
      "max": [
        0.9957068562507629,
        0.9999951124191284,
        0.9999897480010986
      ],
      "min": [
        -0.9998804926872253,
        -0.9999951124191284,
        -0.9999897480010986
      ],
      "type": "VEC3"
    },
    {
      "bufferView": 3,
      "byteOffset": 34688,
      "componentType": 5126,
      "count": 304,
      "max": [
        0.9999340772628784,
        0.9999982714653015,
        0.9999315738677979,
        1.0
      ],
      "min": [
        -0.9956519603729248,
        -0.9998999834060669,
        -0.9995748996734619,
        1.0
      ],
      "type": "VEC4"
    },
    {
      "bufferView": 1,
      "byteOffset": 17344,
      "componentType": 5126,
      "count": 304,
      "max": [
        0.7053769826889038,
        0.9993450045585632
      ],
      "min": [
        0.2305999994277954,
        0.00022499999613501132
      ],
      "type": "VEC2"
    },
    {
      "bufferView": 0,
      "byteOffset": 43728,
      "componentType": 5125,
      "count": 1476,
      "type": "SCALAR"
    },
    {
      "bufferView": 2,
      "byteOffset": 59328,
      "componentType": 5126,
      "count": 234,
      "max": [
        0.3877750039100647,
        0.419842004776001,
        1.0685679912567139
      ],
      "min": [
        -0.40614598989486694,
        -0.6507400274276733,
        0.9924399852752686
      ],
      "type": "VEC3"
    },
    {
      "bufferView": 2,
      "byteOffset": 62136,
      "componentType": 5126,
      "count": 234,
      "max": [
        0.9810126423835754,
        0.9885938763618469,
        0.9994091391563416
      ],
      "min": [
        -0.9810382127761841,
        -0.9960504770278931,
        -0.9994091391563416
      ],
      "type": "VEC3"
    },
    {
      "bufferView": 3,
      "byteOffset": 39552,
      "componentType": 5126,
      "count": 234,
      "max": [
        0.9999463558197021,
        0.9995125532150269,
        0.9883203506469727,
        1.0
      ],
      "min": [
        -0.9992057681083679,
        -0.7557196617126465,
        -0.9984557032585144,
        -1.0
      ],
      "type": "VEC4"
    },
    {
      "bufferView": 1,
      "byteOffset": 19776,
      "componentType": 5126,
      "count": 234,
      "max": [
        0.7598029971122742,
        0.743369996547699
      ],
      "min": [
        0.0010369999799877405,
        0.000446999998530373
      ],
      "type": "VEC2"
    },
    {
      "bufferView": 0,
      "byteOffset": 49632,
      "componentType": 5125,
      "count": 792,
      "type": "SCALAR"
    },
    {
      "bufferView": 2,
      "byteOffset": 64944,
      "componentType": 5126,
      "count": 96,
      "max": [
        0.3350349962711334,
        0.048695001751184464,
        0.6467300057411194
      ],
      "min": [
        -0.3350349962711334,
        -0.541500985622406,
        0.5756300091743469
      ],
      "type": "VEC3"
    },
    {
      "bufferView": 2,
      "byteOffset": 66096,
      "componentType": 5126,
      "count": 96,
      "max": [
        0.9909072518348694,
        0.8592821359634399,
        0.9780977368354797
      ],
      "min": [
        -0.9909073710441589,
        -0.9799614548683167,
        -0.9658721089363098
      ],
      "type": "VEC3"
    },
    {
      "bufferView": 3,
      "byteOffset": 43296,
      "componentType": 5126,
      "count": 96,
      "max": [
        0.68348628282547,
        0.9991682171821594,
        0.9986129403114319,
        1.0
      ],
      "min": [
        -0.9803697466850281,
        -0.9778865575790405,
        -0.9897279739379883,
        -1.0
      ],
      "type": "VEC4"
    },
    {
      "bufferView": 1,
      "byteOffset": 21648,
      "componentType": 5126,
      "count": 96,
      "max": [
        0.9655309915542603,
        0.9869869947433472
      ],
      "min": [
        0.0013119999784976244,
        0.0015689999563619494
      ],
      "type": "VEC2"
    },
    {
      "bufferView": 0,
      "byteOffset": 52800,
      "componentType": 5125,
      "count": 324,
      "type": "SCALAR"
    },
    {
      "bufferView": 2,
      "byteOffset": 67248,
      "componentType": 5126,
      "count": 128,
      "max": [
        0.2812030017375946,
        -0.5880540013313293,
        1.157668948173523
      ],
      "min": [
        -0.2812030017375946,
        -0.6868550181388855,
        0.8865820169448853
      ],
      "type": "VEC3"
    },
    {
      "bufferView": 2,
      "byteOffset": 68784,
      "componentType": 5126,
      "count": 128,
      "max": [
        0.9825515151023865,
        0.9993469715118408,
        0.998649537563324
      ],
      "min": [
        -0.9825514554977417,
        -0.9990508556365967,
        -0.9987397789955139
      ],
      "type": "VEC3"
    },
    {
      "bufferView": 3,
      "byteOffset": 44832,
      "componentType": 5126,
      "count": 128,
      "max": [
        0.9996897578239441,
        0.9993716478347778,
        0.99912428855896,
        1.0
      ],
      "min": [
        -1.0,
        -0.9759376049041748,
        -0.6758801341056824,
        1.0
      ],
      "type": "VEC4"
    },
    {
      "bufferView": 1,
      "byteOffset": 22416,
      "componentType": 5126,
      "count": 128,
      "max": [
        0.9995880126953125,
        0.9793339967727661
      ],
      "min": [
        0.08861099928617477,
        0.0008539999835193157
      ],
      "type": "VEC2"
    },
    {
      "bufferView": 0,
      "byteOffset": 54096,
      "componentType": 5125,
      "count": 396,
      "type": "SCALAR"
    }
  ],
  "asset": {
    "extras": {
      "author": "GonnabeOkay (https://sketchfab.com/GonnabeOkay)",
      "license": "SKETCHFAB Standard (https://sketchfab.com/licenses)",
      "source": "https://sketchfab.com/3d-models/student-desk-4206f17763e240ac84755127d706ceeb",
      "title": "Student Desk"
    },
    "generator": "Sketchfab-16.65.0",
    "version": "2.0"
  },
  "bufferViews": [
    {
      "buffer": 0,
      "byteLength": 55680,
      "name": "floatBufferViews",
      "target": 34963
    },
    {
      "buffer": 0,
      "byteLength": 23440,
      "byteOffset": 55680,
      "byteStride": 8,
      "name": "floatBufferViews",
      "target": 34962
    },
    {
      "buffer": 0,
      "byteLength": 70320,
      "byteOffset": 79120,
      "byteStride": 12,
      "name": "floatBufferViews",
      "target": 34962
    },
    {
      "buffer": 0,
      "byteLength": 46880,
      "byteOffset": 149440,
      "byteStride": 16,
      "name": "floatBufferViews",
      "target": 34962
    }
  ],
  "buffers": [
    {
      "byteLength": 196320,
      "uri": "scene.bin"
    }
  ],
  "images": [
    {
      "uri": "textures/Metal_baseColor.jpeg"
    },
    {
      "uri": "textures/Metal_metallicRoughness.png"
    },
    {
      "uri": "textures/Metal_normal.png"
    },
    {
      "uri": "textures/DeskSeat_Back_baseColor.jpeg"
    },
    {
      "uri": "textures/DeskSeat_Back_metallicRoughness.png"
    },
    {
      "uri": "textures/DeskSeat_Back_normal.png"
    }
  ],
  "materials": [
    {
      "doubleSided": true,
      "name": "Metal",
      "normalTexture": {
        "index": 2
      },
      "occlusionTexture": {
        "index": 1
      },
      "pbrMetallicRoughness": {
        "baseColorTexture": {
          "index": 0
        },
        "metallicRoughnessTexture": {
          "index": 1
        }
      }
    },
    {
      "doubleSided": true,
      "name": "DeskSeat_Back",
      "normalTexture": {
        "index": 5
      },
      "occlusionTexture": {
        "index": 4
      },
      "pbrMetallicRoughness": {
        "baseColorTexture": {
          "index": 3
        },
        "metallicRoughnessTexture": {
          "index": 4
        }
      }
    }
  ],
  "meshes": [
    {
      "name": "defaultMaterial",
      "primitives": [
        {
          "attributes": {
            "NORMAL": 1,
            "POSITION": 0,
            "TANGENT": 2,
            "TEXCOORD_0": 3
          },
          "indices": 4,
          "material": 0,
          "mode": 4
        }
      ]
    },
    {
      "name": "defaultMaterial",
      "primitives": [
        {
          "attributes": {
            "NORMAL": 6,
            "POSITION": 5,
            "TANGENT": 7,
            "TEXCOORD_0": 8
          },
          "indices": 9,
          "material": 0,
          "mode": 4
        }
      ]
    },
    {
      "name": "defaultMaterial",
      "primitives": [
        {
          "attributes": {
            "NORMAL": 11,
            "POSITION": 10,
            "TANGENT": 12,
            "TEXCOORD_0": 13
          },
          "indices": 14,
          "material": 0,
          "mode": 4
        }
      ]
    },
    {
      "name": "defaultMaterial",
      "primitives": [
        {
          "attributes": {
            "NORMAL": 16,
            "POSITION": 15,
            "TANGENT": 17,
            "TEXCOORD_0": 18
          },
          "indices": 19,
          "material": 0,
          "mode": 4
        }
      ]
    },
    {
      "name": "defaultMaterial",
      "primitives": [
        {
          "attributes": {
            "NORMAL": 21,
            "POSITION": 20,
            "TANGENT": 22,
            "TEXCOORD_0": 23
          },
          "indices": 24,
          "material": 1,
          "mode": 4
        }
      ]
    },
    {
      "name": "defaultMaterial",
      "primitives": [
        {
          "attributes": {
            "NORMAL": 26,
            "POSITION": 25,
            "TANGENT": 27,
            "TEXCOORD_0": 28
          },
          "indices": 29,
          "material": 1,
          "mode": 4
        }
      ]
    },
    {
      "name": "defaultMaterial",
      "primitives": [
        {
          "attributes": {
            "NORMAL": 31,
            "POSITION": 30,
            "TANGENT": 32,
            "TEXCOORD_0": 33
          },
          "indices": 34,
          "material": 1,
          "mode": 4
        }
      ]
    }
  ],
  "nodes": [
    {
      "children": [
        1
      ],
      "matrix": [
        1.0,
        0.0,
        0.0,
        0.0,
        0.0,
        2.220446049250313e-16,
        -1.0,
        0.0,
        0.0,
        1.0,
        2.220446049250313e-16,
        0.0,
        0.0,
        0.0,
        0.0,
        1.0
      ],
      "name": "Sketchfab_model"
    },
    {
      "children": [
        2
      ],
      "matrix": [
        1.0,
        0.0,
        0.0,
        0.0,
        0.0,
        -4.371139006309477e-08,
        0.999999999999999,
        0.0,
        0.0,
        -0.999999999999999,
        -4.371139006309477e-08,
        0.0,
        0.0,
        0.0,
        0.0,
        1.0
      ],
      "name": "Collada visual scene group"
    },
    {
      "children": [
        3,
        5,
        7,
        9,
        11,
        13,
        15
      ],
      "matrix": [
        100.0,
        0.0,
        0.0,
        0.0,
        0.0,
        -1.6e-05,
        -100.0,
        0.0,
        0.0,
        100.0,
        -1.6e-05,
        0.0,
        0.0,
        0.0,
        0.0,
        1.0
      ],
      "name": "ChairDesk"
    },
    {
      "children": [
        4
      ],
      "matrix": [
        0.0,
        -1.0,
        0.0,
        0.0,
        1.0,
        0.0,
        0.0,
        0.0,
        0.0,
        0.0,
        1.0,
        0.0,
        0.0,
        0.0,
        0.0,
        1.0
      ],
      "name": "ChairLegs"
    },
    {
      "mesh": 0,
      "name": "defaultMaterial"
    },
    {
      "children": [
        6
      ],
      "name": "BackLegs"
    },
    {
      "mesh": 1,
      "name": "defaultMaterial"
    },
    {
      "children": [
        8
      ],
      "name": "DeskBrace"
    },
    {
      "mesh": 2,
      "name": "defaultMaterial"
    },
    {
      "children": [
        10
      ],
      "name": "BraceDesk"
    },
    {
      "mesh": 3,
      "name": "defaultMaterial"
    },
    {
      "children": [
        12
      ],
      "name": "Cube"
    },
    {
      "mesh": 4,
      "name": "defaultMaterial"
    },
    {
      "children": [
        14
      ],
      "name": "Cube.001"
    },
    {
      "mesh": 5,
      "name": "defaultMaterial"
    },
    {
      "children": [
        16
      ],
      "name": "Cube.002"
    },
    {
      "mesh": 6,
      "name": "defaultMaterial"
    }
  ],
  "samplers": [
    {
      "magFilter": 9729,
      "minFilter": 9987,
      "wrapS": 10497,
      "wrapT": 10497
    }
  ],
  "scene": 0,
  "scenes": [
    {
      "name": "Sketchfab_Scene",
      "nodes": [
        0
      ]
    }
  ],
  "textures": [
    {
      "sampler": 0,
      "source": 0
    },
    {
      "sampler": 0,
      "source": 1
    },
    {
      "sampler": 0,
      "source": 2
    },
    {
      "sampler": 0,
      "source": 3
    },
    {
      "sampler": 0,
      "source": 4
    },
    {
      "sampler": 0,
      "source": 5
    }
  ]
}
