{
	"asset":{
		"generator":"Khronos glTF Blender I/O v5.0.21",
		"version":"2.0"
	},
	"scene":0,
	"scenes":[
		{
			"name":"Scene",
			"nodes":[
				0
			]
		}
	],
	"nodes":[
		{
			"mesh":0,
			"name":"Cube.001",
			"scale":[
				1.7157800197601318,
				0.0698494240641594,
				2.471432685852051
			],
			"translation":[
				-0.06064680218696594,
				0.08866488933563232,
				-0.015959685668349266
			]
		}
	],
	"materials":[
		{
			"doubleSided":true,
			"name":"Material.002",
			"pbrMetallicRoughness":{
				"baseColorFactor":[
					0.14126233756542206,
					0.1412634253501892,
					0.14126335084438324,
					1
				],
				"metallicFactor":0,
				"roughnessFactor":0.5
			}
		},
		{
			"doubleSided":true,
			"name":"Material",
			"pbrMetallicRoughness":{
				"baseColorFactor":[
					0.14126233756542206,
					0.1412634253501892,
					0.14126335084438324,
					1
				],
				"metallicFactor":0,
				"roughnessFactor":0.5
			}
		},
		{
			"doubleSided":true,
			"name":"Material.004",
			"pbrMetallicRoughness":{
				"baseColorFactor":[
					0.0331045463681221,
					0.03310481086373329,
					0.0331047885119915,
					1
				],
				"metallicFactor":0,
				"roughnessFactor":0.5
			}
		},
		{
			"doubleSided":true,
			"name":"Material.005",
			"pbrMetallicRoughness":{
				"baseColorFactor":[
					0.0331045463681221,
					0.03310481086373329,
					0.0331047885119915,
					1
				],
				"metallicFactor":0,
				"roughnessFactor":0.5
			}
		},
		{
			"doubleSided":true,
			"name":"gray",
			"pbrMetallicRoughness":{
				"baseColorFactor":[
					0.0331045463681221,
					0.03310481086373329,
					0.0331047885119915,
					1
				],
				"metallicFactor":0,
				"roughnessFactor":0.5
			}
		}
	],
	"meshes":[
		{
			"name":"Cube.002",
			"primitives":[
				{
					"attributes":{
						"POSITION":0,
						"NORMAL":1,
						"TEXCOORD_0":2
					},
					"indices":3,
					"material":0
				},
				{
					"attributes":{
						"POSITION":4,
						"NORMAL":5,
						"TEXCOORD_0":6
					},
					"indices":3,
					"material":1
				},
				{
					"attributes":{
						"POSITION":7,
						"NORMAL":8,
						"TEXCOORD_0":9
					},
					"indices":3,
					"material":2
				},
				{
					"attributes":{
						"POSITION":10,
						"NORMAL":11,
						"TEXCOORD_0":12
					},
					"indices":3,
					"material":3
				},
				{
					"attributes":{
						"POSITION":13,
						"NORMAL":14,
						"TEXCOORD_0":15
					},
					"indices":3,
					"material":4
				}
			]
		}
	],
	"accessors":[
		{
			"bufferView":0,
			"componentType":5126,
			"count":14,
			"max":[
				1,
				1,
				1
			],
			"min":[
				-1,
				-1,
				-1
			],
			"type":"VEC3"
		},
		{
			"bufferView":1,
			"componentType":5126,
			"count":14,
			"type":"VEC3"
		},
		{
			"bufferView":2,
			"componentType":5126,
			"count":14,
			"type":"VEC2"
		},
		{
			"bufferView":3,
			"componentType":5123,
			"count":36,
			"type":"SCALAR"
		},
		{
			"bufferView":4,
			"componentType":5126,
			"count":14,
			"max":[
				0.8733614087104797,
				-0.7091227173805237,
				0.9957244396209717
			],
			"min":[
				-0.8026683926582336,
				-1.8296208381652832,
				-0.9828090667724609
			],
			"type":"VEC3"
		},
		{
			"bufferView":5,
			"componentType":5126,
			"count":14,
			"type":"VEC3"
		},
		{
			"bufferView":6,
			"componentType":5126,
			"count":14,
			"type":"VEC2"
		},
		{
			"bufferView":7,
			"componentType":5126,
			"count":14,
			"max":[
				1.0855071544647217,
				14.875181198120117,
				1.0412312746047974
			],
			"min":[
				-1.0148141384124756,
				-41.379676818847656,
				0.9759377241134644
			],
			"type":"VEC3"
		},
		{
			"bufferView":8,
			"componentType":5126,
			"count":14,
			"type":"VEC3"
		},
		{
			"bufferView":9,
			"componentType":5126,
			"count":14,
			"type":"VEC2"
		},
		{
			"bufferView":10,
			"componentType":5126,
			"count":14,
			"max":[
				1.0855071544647217,
				14.875181198120117,
				-0.9735602140426636
			],
			"min":[
				-1.0148141384124756,
				-41.379676818847656,
				-1.0388537645339966
			],
			"type":"VEC3"
		},
		{
			"bufferView":11,
			"componentType":5126,
			"count":14,
			"type":"VEC3"
		},
		{
			"bufferView":12,
			"componentType":5126,
			"count":14,
			"type":"VEC2"
		},
		{
			"bufferView":13,
			"componentType":5126,
			"count":14,
			"max":[
				-0.9543261528015137,
				12.031907081604004,
				1.0120646953582764
			],
			"min":[
				-1.058563470840454,
				-17.019393920898438,
				-1.0096869468688965
			],
			"type":"VEC3"
		},
		{
			"bufferView":14,
			"componentType":5126,
			"count":14,
			"type":"VEC3"
		},
		{
			"bufferView":15,
			"componentType":5126,
			"count":14,
			"type":"VEC2"
		}
	],
	"bufferViews":[
		{
			"buffer":0,
			"byteLength":168,
			"byteOffset":0,
			"target":34962
		},
		{
			"buffer":0,
			"byteLength":168,
			"byteOffset":168,
			"target":34962
		},
		{
			"buffer":0,
			"byteLength":112,
			"byteOffset":336,
			"target":34962
		},
		{
			"buffer":0,
			"byteLength":72,
			"byteOffset":448,
			"target":34963
		},
		{
			"buffer":0,
			"byteLength":168,
			"byteOffset":520,
			"target":34962
		},
		{
			"buffer":0,
			"byteLength":168,
			"byteOffset":688,
			"target":34962
		},
		{
			"buffer":0,
			"byteLength":112,
			"byteOffset":856,
			"target":34962
		},
		{
			"buffer":0,
			"byteLength":168,
			"byteOffset":968,
			"target":34962
		},
		{
			"buffer":0,
			"byteLength":168,
			"byteOffset":1136,
			"target":34962
		},
		{
			"buffer":0,
			"byteLength":112,
			"byteOffset":1304,
			"target":34962
		},
		{
			"buffer":0,
			"byteLength":168,
			"byteOffset":1416,
			"target":34962
		},
		{
			"buffer":0,
			"byteLength":168,
			"byteOffset":1584,
			"target":34962
		},
		{
			"buffer":0,
			"byteLength":112,
			"byteOffset":1752,
			"target":34962
		},
		{
			"buffer":0,
			"byteLength":168,
			"byteOffset":1864,
			"target":34962
		},
		{
			"buffer":0,
			"byteLength":168,
			"byteOffset":2032,
			"target":34962
		},
		{
			"buffer":0,
			"byteLength":112,
			"byteOffset":2200,
			"target":34962
		}
	],
	"buffers":[
		{
			"byteLength":2312,
			"uri":"model.bin"
		}
	]
}
