{
  "accessors": [
    {
      "bufferView": 2,
      "componentType": 5126,
      "count": 136,
      "max": [
        0.0012358427047729492,
        0.04969888925552368,
        0.7414936423301697
      ],
      "min": [
        -0.784122109413147,
        -0.05815332010388374,
        -1.0645228624343872
      ],
      "type": "VEC3"
    },
    {
      "bufferView": 2,
      "byteOffset": 1632,
      "componentType": 5126,
      "count": 136,
      "max": [
        1.0,
        1.0,
        1.0
      ],
      "min": [
        -1.0,
        -1.0,
        -1.0
      ],
      "type": "VEC3"
    },
    {
      "bufferView": 1,
      "componentType": 5126,
      "count": 136,
      "max": [
        0.9941955208778381,
        0.9011566638946533
      ],
      "min": [
        0.9388201832771301,
        0.47954943776130676
      ],
      "type": "VEC2"
    },
    {
      "bufferView": 0,
      "componentType": 5125,
      "count": 216,
      "type": "SCALAR"
    },
    {
      "bufferView": 2,
      "byteOffset": 3264,
      "componentType": 5126,
      "count": 112,
      "max": [
        -0.009531617164611816,
        0.04283086210489273,
        0.9030082821846008
      ],
      "min": [
        -0.7653080224990845,
        -0.04283086210489273,
        -0.903008222579956
      ],
      "type": "VEC3"
    },
    {
      "bufferView": 2,
      "byteOffset": 4608,
      "componentType": 5126,
      "count": 112,
      "max": [
        1.0,
        1.0,
        1.0
      ],
      "min": [
        -1.0,
        -1.0,
        -1.0
      ],
      "type": "VEC3"
    },
    {
      "bufferView": 1,
      "byteOffset": 1088,
      "componentType": 5126,
      "count": 112,
      "max": [
        0.9333450794219971,
        0.8987554907798767
      ],
      "min": [
        0.8731451034545898,
        0.47886064648628235
      ],
      "type": "VEC2"
    },
    {
      "bufferView": 0,
      "byteOffset": 864,
      "componentType": 5125,
      "count": 180,
      "type": "SCALAR"
    },
    {
      "bufferView": 2,
      "byteOffset": 5952,
      "componentType": 5126,
      "count": 468,
      "max": [
        -0.009532809257507324,
        0.042830899357795715,
        0.8183193206787109
      ],
      "min": [
        -0.76530921459198,
        -0.042830899357795715,
        -0.9876972436904907
      ],
      "type": "VEC3"
    },
    {
      "bufferView": 2,
      "byteOffset": 11568,
      "componentType": 5126,
      "count": 468,
      "max": [
        1.0,
        1.0,
        1.0
      ],
      "min": [
        -1.0,
        -1.0,
        -1.0
      ],
      "type": "VEC3"
    },
    {
      "bufferView": 1,
      "byteOffset": 1984,
      "componentType": 5126,
      "count": 468,
      "max": [
        0.79555344581604,
        0.8695458769798279
      ],
      "min": [
        0.7506244778633118,
        0.47526007890701294
      ],
      "type": "VEC2"
    },
    {
      "bufferView": 0,
      "byteOffset": 1584,
      "componentType": 5125,
      "count": 744,
      "type": "SCALAR"
    },
    {
      "bufferView": 2,
      "byteOffset": 17184,
      "componentType": 5126,
      "count": 278,
      "max": [
        0.10329687595367432,
        0.1057262048125267,
        0.03015124797821045
      ],
      "min": [
        -0.04036521911621094,
        -0.023751039057970047,
        -0.030148625373840332
      ],
      "type": "VEC3"
    },
    {
      "bufferView": 2,
      "byteOffset": 20520,
      "componentType": 5126,
      "count": 278,
      "max": [
        1.0,
        1.0,
        0.9993606209754944
      ],
      "min": [
        -1.0,
        -1.0,
        -0.9993606805801392
      ],
      "type": "VEC3"
    },
    {
      "bufferView": 1,
      "byteOffset": 5728,
      "componentType": 5126,
      "count": 278,
      "max": [
        0.49783870577812195,
        0.6460641622543335
      ],
      "min": [
        0.49356454610824585,
        0.611594557762146
      ],
      "type": "VEC2"
    },
    {
      "bufferView": 0,
      "byteOffset": 4560,
      "componentType": 5125,
      "count": 432,
      "type": "SCALAR"
    },
    {
      "bufferView": 2,
      "byteOffset": 23856,
      "componentType": 5126,
      "count": 256,
      "max": [
        -0.00953066349029541,
        0.04283088445663452,
        0.9072732329368591
      ],
      "min": [
        -0.7653070688247681,
        -0.04283088445663452,
        -0.8987432718276978
      ],
      "type": "VEC3"
    },
    {
      "bufferView": 2,
      "byteOffset": 26928,
      "componentType": 5126,
      "count": 256,
      "max": [
        1.0,
        1.0,
        1.0
      ],
      "min": [
        -1.0,
        -1.0,
        -1.0
      ],
      "type": "VEC3"
    },
    {
      "bufferView": 1,
      "byteOffset": 7952,
      "componentType": 5126,
      "count": 256,
      "max": [
        0.731296956539154,
        0.8831276893615723
      ],
      "min": [
        0.6803484559059143,
        0.46986594796180725
      ],
      "type": "VEC2"
    },
    {
      "bufferView": 0,
      "byteOffset": 6288,
      "componentType": 5125,
      "count": 408,
      "type": "SCALAR"
    },
    {
      "bufferView": 2,
      "byteOffset": 30000,
      "componentType": 5126,
      "count": 278,
      "max": [
        0.10329687595367432,
        0.1057262271642685,
        0.03015124797821045
      ],
      "min": [
        -0.04036545380949974,
        -0.023751039057970047,
        -0.030148625373840332
      ],
      "type": "VEC3"
    },
    {
      "bufferView": 2,
      "byteOffset": 33336,
      "componentType": 5126,
      "count": 278,
      "max": [
        1.0,
        1.0,
        0.9993606805801392
      ],
      "min": [
        -1.0,
        -1.0,
        -0.9993606805801392
      ],
      "type": "VEC3"
    },
    {
      "bufferView": 1,
      "byteOffset": 10000,
      "componentType": 5126,
      "count": 278,
      "max": [
        0.49783870577812195,
        0.6460641622543335
      ],
      "min": [
        0.49356454610824585,
        0.611594557762146
      ],
      "type": "VEC2"
    },
    {
      "bufferView": 0,
      "byteOffset": 7920,
      "componentType": 5125,
      "count": 432,
      "type": "SCALAR"
    },
    {
      "bufferView": 2,
      "byteOffset": 36672,
      "componentType": 5126,
      "count": 438,
      "max": [
        -0.009496092796325684,
        0.04283088445663452,
        0.896745502948761
      ],
      "min": [
        -0.7652724981307983,
        -0.04283088445663452,
        -0.9092710018157959
      ],
      "type": "VEC3"
    },
    {
      "bufferView": 2,
      "byteOffset": 41928,
      "componentType": 5126,
      "count": 438,
      "max": [
        1.0,
        1.0,
        1.0
      ],
      "min": [
        -1.0,
        -1.0,
        -1.0
      ],
      "type": "VEC3"
    },
    {
      "bufferView": 1,
      "byteOffset": 12224,
      "componentType": 5126,
      "count": 438,
      "max": [
        0.6554936766624451,
        0.9541327357292175
      ],
      "min": [
        0.6027306914329529,
        0.5116257071495056
      ],
      "type": "VEC2"
    },
    {
      "bufferView": 0,
      "byteOffset": 9648,
      "componentType": 5125,
      "count": 708,
      "type": "SCALAR"
    },
    {
      "bufferView": 2,
      "byteOffset": 47184,
      "componentType": 5126,
      "count": 278,
      "max": [
        0.10329687595367432,
        0.09370944648981094,
        0.030151251703500748
      ],
      "min": [
        -0.04036521911621094,
        -0.023751039057970047,
        -0.030148625373840332
      ],
      "type": "VEC3"
    },
    {
      "bufferView": 2,
      "byteOffset": 50520,
      "componentType": 5126,
      "count": 278,
      "max": [
        1.0,
        1.0,
        0.9993606209754944
      ],
      "min": [
        -1.0,
        -1.0,
        -0.9993606805801392
      ],
      "type": "VEC3"
    },
    {
      "bufferView": 1,
      "byteOffset": 15728,
      "componentType": 5126,
      "count": 278,
      "max": [
        0.49783870577812195,
        0.6460641622543335
      ],
      "min": [
        0.49356454610824585,
        0.611594557762146
      ],
      "type": "VEC2"
    },
    {
      "bufferView": 0,
      "byteOffset": 12480,
      "componentType": 5125,
      "count": 432,
      "type": "SCALAR"
    },
    {
      "bufferView": 2,
      "byteOffset": 53856,
      "componentType": 5126,
      "count": 101,
      "max": [
        0.4485030174255371,
        0.0749489814043045,
        0.7581958770751953
      ],
      "min": [
        -0.4485020637512207,
        -0.07264715433120728,
        -1.1814080476760864
      ],
      "type": "VEC3"
    },
    {
      "bufferView": 2,
      "byteOffset": 55068,
      "componentType": 5126,
      "count": 101,
      "max": [
        1.0,
        1.0,
        1.0
      ],
      "min": [
        -1.0,
        -1.0,
        -1.0
      ],
      "type": "VEC3"
    },
    {
      "bufferView": 1,
      "byteOffset": 17952,
      "componentType": 5126,
      "count": 101,
      "max": [
        0.8005044460296631,
        0.8967254161834717
      ],
      "min": [
        0.7471106052398682,
        0.4743809998035431
      ],
      "type": "VEC2"
    },
    {
      "bufferView": 0,
      "byteOffset": 14208,
      "componentType": 5125,
      "count": 180,
      "type": "SCALAR"
    },
    {
      "bufferView": 2,
      "byteOffset": 56280,
      "componentType": 5126,
      "count": 101,
      "max": [
        0.4485025405883789,
        0.0749489814043045,
        0.7581958770751953
      ],
      "min": [
        -0.4485025405883789,
        -0.07264715433120728,
        -1.1814080476760864
      ],
      "type": "VEC3"
    },
    {
      "bufferView": 2,
      "byteOffset": 57492,
      "componentType": 5126,
      "count": 101,
      "max": [
        1.0,
        1.0,
        1.0
      ],
      "min": [
        -1.0,
        -1.0,
        -1.0
      ],
      "type": "VEC3"
    },
    {
      "bufferView": 1,
      "byteOffset": 18760,
      "componentType": 5126,
      "count": 101,
      "max": [
        0.73642498254776,
        0.9030788540840149
      ],
      "min": [
        0.6739906668663025,
        0.46896108984947205
      ],
      "type": "VEC2"
    },
    {
      "bufferView": 0,
      "byteOffset": 14928,
      "componentType": 5125,
      "count": 180,
      "type": "SCALAR"
    },
    {
      "bufferView": 2,
      "byteOffset": 58704,
      "componentType": 5126,
      "count": 101,
      "max": [
        0.4485025405883789,
        0.0749489814043045,
        0.7581958770751953
      ],
      "min": [
        -0.4485025405883789,
        -0.07264715433120728,
        -1.1814080476760864
      ],
      "type": "VEC3"
    },
    {
      "bufferView": 2,
      "byteOffset": 59916,
      "componentType": 5126,
      "count": 101,
      "max": [
        1.0,
        1.0,
        1.0
      ],
      "min": [
        -1.0,
        -1.0,
        -1.0
      ],
      "type": "VEC3"
    },
    {
      "bufferView": 1,
      "byteOffset": 19568,
      "componentType": 5126,
      "count": 101,
      "max": [
        0.6619933843612671,
        0.978827953338623
      ],
      "min": [
        0.5950725674629211,
        0.5108731389045715
      ],
      "type": "VEC2"
    },
    {
      "bufferView": 0,
      "byteOffset": 15648,
      "componentType": 5125,
      "count": 180,
      "type": "SCALAR"
    }
  ],
  "asset": {
    "extras": {
      "author": "vanillao03 (https://sketchfab.com/vanillao03)",
      "license": "CC-BY-4.0 (http://creativecommons.org/licenses/by/4.0/)",
      "source": "https://sketchfab.com/3d-models/low-poly-psx-style-worn-wooden-doors-pack-16dd7631d2e145ffacfc374961d71cf1",
      "title": "Low-Poly PSX Style Worn Wooden Doors Pack"
    },
    "generator": "Sketchfab-16.99.0",
    "version": "2.0"
  },
  "bufferViews": [
    {
      "buffer": 0,
      "byteLength": 16368,
      "name": "floatBufferViews",
      "target": 34963
    },
    {
      "buffer": 0,
      "byteLength": 20376,
      "byteOffset": 16368,
      "byteStride": 8,
      "name": "floatBufferViews",
      "target": 34962
    },
    {
      "buffer": 0,
      "byteLength": 61128,
      "byteOffset": 36744,
      "byteStride": 12,
      "name": "floatBufferViews",
      "target": 34962
    }
  ],
  "buffers": [
    {
      "byteLength": 97872,
      "uri": "scene.bin"
    }
  ],
  "images": [
    {
      "uri": "textures/Doors_baseColor.png"
    }
  ],
  "materials": [
    {
      "doubleSided": true,
      "name": "Doors",
      "pbrMetallicRoughness": {
        "baseColorTexture": {
          "index": 0
        },
        "metallicFactor": 0.0,
        "roughnessFactor": 0.8040408205773457
      }
    }
  ],
  "meshes": [
    {
      "name": "Worn Door_001_Doors_0",
      "primitives": [
        {
          "attributes": {
            "NORMAL": 1,
            "POSITION": 0,
            "TEXCOORD_0": 2
          },
          "indices": 3,
          "material": 0,
          "mode": 4
        }
      ]
    },
    {
      "name": "Worn Door_002_Doors_0",
      "primitives": [
        {
          "attributes": {
            "NORMAL": 5,
            "POSITION": 4,
            "TEXCOORD_0": 6
          },
          "indices": 7,
          "material": 0,
          "mode": 4
        }
      ]
    },
    {
      "name": "Worn Door_004_Doors_0",
      "primitives": [
        {
          "attributes": {
            "NORMAL": 9,
            "POSITION": 8,
            "TEXCOORD_0": 10
          },
          "indices": 11,
          "material": 0,
          "mode": 4
        }
      ]
    },
    {
      "name": "Door Handle.009_Doors_0",
      "primitives": [
        {
          "attributes": {
            "NORMAL": 13,
            "POSITION": 12,
            "TEXCOORD_0": 14
          },
          "indices": 15,
          "material": 0,
          "mode": 4
        }
      ]
    },
    {
      "name": "Worn Door_005_Doors_0",
      "primitives": [
        {
          "attributes": {
            "NORMAL": 17,
            "POSITION": 16,
            "TEXCOORD_0": 18
          },
          "indices": 19,
          "material": 0,
          "mode": 4
        }
      ]
    },
    {
      "name": "Door Handle.008_Doors_0",
      "primitives": [
        {
          "attributes": {
            "NORMAL": 21,
            "POSITION": 20,
            "TEXCOORD_0": 22
          },
          "indices": 23,
          "material": 0,
          "mode": 4
        }
      ]
    },
    {
      "name": "Worn Door_006_Doors_0",
      "primitives": [
        {
          "attributes": {
            "NORMAL": 25,
            "POSITION": 24,
            "TEXCOORD_0": 26
          },
          "indices": 27,
          "material": 0,
          "mode": 4
        }
      ]
    },
    {
      "name": "Door Handle.005_Doors_0",
      "primitives": [
        {
          "attributes": {
            "NORMAL": 29,
            "POSITION": 28,
            "TEXCOORD_0": 30
          },
          "indices": 31,
          "material": 0,
          "mode": 4
        }
      ]
    },
    {
      "name": "Worn Doorframe_004_Doors_0",
      "primitives": [
        {
          "attributes": {
            "NORMAL": 33,
            "POSITION": 32,
            "TEXCOORD_0": 34
          },
          "indices": 35,
          "material": 0,
          "mode": 4
        }
      ]
    },
    {
      "name": "Worn Doorframe_005_Doors_0",
      "primitives": [
        {
          "attributes": {
            "NORMAL": 37,
            "POSITION": 36,
            "TEXCOORD_0": 38
          },
          "indices": 39,
          "material": 0,
          "mode": 4
        }
      ]
    },
    {
      "name": "Worn Doorframe_006_Doors_0",
      "primitives": [
        {
          "attributes": {
            "NORMAL": 41,
            "POSITION": 40,
            "TEXCOORD_0": 42
          },
          "indices": 43,
          "material": 0,
          "mode": 4
        }
      ]
    }
  ],
  "nodes": [
    {
      "children": [
        1
      ],
      "matrix": [
        1.0,
        0.0,
        0.0,
        0.0,
        0.0,
        2.220446049250313e-16,
        -1.0,
        0.0,
        0.0,
        1.0,
        2.220446049250313e-16,
        0.0,
        0.0,
        0.0,
        0.0,
        1.0
      ],
      "name": "Sketchfab_model"
    },
    {
      "children": [
        2
      ],
      "matrix": [
        0.009999999776482582,
        0.0,
        0.0,
        0.0,
        0.0,
        0.0,
        0.009999999776482582,
        0.0,
        0.0,
        -0.009999999776482582,
        0.0,
        0.0,
        0.0,
        0.0,
        0.0,
        1.0
      ],
      "name": "68a78e464c60419880f647d8dc82cf8d.fbx"
    },
    {
      "children": [
        3,
        5,
        7,
        11,
        15,
        19,
        21,
        23
      ],
      "name": "RootNode"
    },
    {
      "children": [
        4
      ],
      "matrix": [
        100.0,
        0.0,
        0.0,
        0.0,
        0.0,
        -1.629206793918314e-05,
        -99.99999999999868,
        0.0,
        0.0,
        99.99999999999868,
        -1.629206793918314e-05,
        0.0,
        902.0397338867188,
        111.40564727783203,
        -700.0006713867188,
        1.0
      ],
      "name": "Worn Door_001"
    },
    {
      "mesh": 0,
      "name": "Worn Door_001_Doors_0"
    },
    {
      "children": [
        6
      ],
      "matrix": [
        100.0,
        0.0,
        0.0,
        0.0,
        0.0,
        -1.629206793918314e-05,
        -99.99999999999868,
        0.0,
        0.0,
        99.99999999999868,
        -1.629206793918314e-05,
        0.0,
        781.8466186523438,
        95.25418090820313,
        -700.6873779296875,
        1.0
      ],
      "name": "Worn Door_002"
    },
    {
      "mesh": 1,
      "name": "Worn Door_002_Doors_0"
    },
    {
      "children": [
        8,
        9
      ],
      "matrix": [
        100.0,
        0.0,
        0.0,
        0.0,
        0.0,
        -1.629206793918314e-05,
        -99.99999999999868,
        0.0,
        0.0,
        99.99999999999868,
        -1.629206793918314e-05,
        0.0,
        645.1701049804688,
        102.45286560058594,
        -700.6873779296875,
        1.0
      ],
      "name": "Worn Door_004"
    },
    {
      "mesh": 2,
      "name": "Worn Door_004_Doors_0"
    },
    {
      "children": [
        10
      ],
      "matrix": [
        1.258070905457165,
        8.271806125530275e-25,
        -0.023406256671998353,
        0.0,
        -1.31979072294924e-24,
        1.2582885026931763,
        -2.646977960169688e-23,
        0.0,
        0.023406256671998353,
        2.648975245329787e-23,
        1.258070905457165,
        0.0,
        -0.6967630386352539,
        -0.0515742301940918,
        -0.230627179145813,
        1.0
      ],
      "name": "Door Handle.009"
    },
    {
      "mesh": 3,
      "name": "Door Handle.009_Doors_0"
    },
    {
      "children": [
        12,
        13
      ],
      "matrix": [
        100.0,
        0.0,
        0.0,
        0.0,
        0.0,
        -1.629206793918314e-05,
        -99.99999999999868,
        0.0,
        0.0,
        99.99999999999868,
        -1.629206793918314e-05,
        0.0,
        508.7359313964844,
        93.55746459960938,
        -700.6873779296875,
        1.0
      ],
      "name": "Worn Door_005"
    },
    {
      "mesh": 4,
      "name": "Worn Door_005_Doors_0"
    },
    {
      "children": [
        14
      ],
      "matrix": [
        1.258070905457165,
        8.271806125530275e-25,
        -0.023406256671998353,
        0.0,
        -1.31979072294924e-24,
        1.2582885026931763,
        -2.646977960169688e-23,
        0.0,
        0.023406256671998353,
        2.648975245329787e-23,
        1.258070905457165,
        0.0,
        -0.7079372406005859,
        -0.0515742301940918,
        -0.0317835807800293,
        1.0
      ],
      "name": "Door Handle.008"
    },
    {
      "mesh": 5,
      "name": "Door Handle.008_Doors_0"
    },
    {
      "children": [
        16,
        17
      ],
      "matrix": [
        100.0,
        0.0,
        0.0,
        0.0,
        0.0,
        -1.629206793918314e-05,
        -99.99999999999868,
        0.0,
        0.0,
        99.99999999999868,
        -1.629206793918314e-05,
        0.0,
        364.6142578125,
        94.61023712158203,
        -700.6873779296875,
        1.0
      ],
      "name": "Worn Door_006"
    },
    {
      "mesh": 6,
      "name": "Worn Door_006_Doors_0"
    },
    {
      "children": [
        18
      ],
      "matrix": [
        1.4741705597446764,
        0.0,
        -0.027426764540865692,
        0.0,
        0.0,
        1.4744256734848022,
        0.0,
        0.0,
        0.027426764540865692,
        0.0,
        1.4741705597446764,
        0.0,
        -0.7065985202789307,
        -0.0515742301940918,
        0.059354186058044434,
        1.0
      ],
      "name": "Door Handle.005"
    },
    {
      "mesh": 7,
      "name": "Door Handle.005_Doors_0"
    },
    {
      "children": [
        20
      ],
      "matrix": [
        100.0,
        0.0,
        0.0,
        0.0,
        0.0,
        -1.629206793918314e-05,
        -99.99999999999868,
        0.0,
        0.0,
        99.99999999999868,
        -1.629206793918314e-05,
        0.0,
        606.212646484375,
        117.57923126220703,
        -700.5723876953125,
        1.0
      ],
      "name": "Worn Doorframe_004"
    },
    {
      "mesh": 8,
      "name": "Worn Doorframe_004_Doors_0"
    },
    {
      "children": [
        22
      ],
      "matrix": [
        100.0,
        0.0,
        0.0,
        0.0,
        0.0,
        -1.629206793918314e-05,
        -99.99999999999868,
        0.0,
        0.0,
        99.99999999999868,
        -1.629206793918314e-05,
        0.0,
        469.7785339355469,
        117.57923126220703,
        -700.5723876953125,
        1.0
      ],
      "name": "Worn Doorframe_005"
    },
    {
      "mesh": 9,
      "name": "Worn Doorframe_005_Doors_0"
    },
    {
      "children": [
        24
      ],
      "matrix": [
        100.0,
        0.0,
        0.0,
        0.0,
        0.0,
        -1.629206793918314e-05,
        -99.99999999999868,
        0.0,
        0.0,
        99.99999999999868,
        -1.629206793918314e-05,
        0.0,
        325.66033935546875,
        117.57923126220703,
        -700.5723876953125,
        1.0
      ],
      "name": "Worn Doorframe_006"
    },
    {
      "mesh": 10,
      "name": "Worn Doorframe_006_Doors_0"
    }
  ],
  "samplers": [
    {
      "magFilter": 9729,
      "minFilter": 9987,
      "wrapS": 10497,
      "wrapT": 10497
    }
  ],
  "scene": 0,
  "scenes": [
    {
      "name": "Sketchfab_Scene",
      "nodes": [
        0
      ]
    }
  ],
  "textures": [
    {
      "sampler": 0,
      "source": 0
    }
  ]
}
